<svg id="ad961923-cc54-48ca-8715-143707ee5444" data-name="Layer 1" xmlns="http://www.w3.org/2000/svg" width="865.76" height="682.89" viewBox="0 0 865.76 682.89"><g id="e918e3a1-b0f9-4b8d-b217-d5b4a1808bb9" data-name="freepik--background-simple--inject-88"><path d="M651.44,151.74a299.77,299.77,0,0,0-81.72-57.35C524.66,73.32,475,63.16,425.39,62.56,280.3,60.8,269.28,231.2,224.69,254.91S99.25,281.38,96.46,376.12c-1.75,59.61,12.16,120.9,51.29,167.36,35.81,42.54,88.5,64.09,140.37,80,58.26,17.9,120,35.42,181.32,23.41,62.87-12.39,107.05-62.17,158.7-95.82,32.5-21.19,61.69-43.5,81.77-77.49,2.4-4.07,4.64-8.27,6.78-12.4,26.88-52.82,32.15-113.76,17.33-170.92C720.72,239,690.75,190.08,651.44,151.74Z" fill="#0071f2"/><path d="M651.44,151.74a299.77,299.77,0,0,0-81.72-57.35C524.66,73.32,475,63.16,425.39,62.56,280.3,60.8,269.28,231.2,224.69,254.91S99.25,281.38,96.46,376.12c-1.75,59.61,12.16,120.9,51.29,167.36,35.81,42.54,88.5,64.09,140.37,80,58.26,17.9,120,35.42,181.32,23.41,62.87-12.39,107.05-62.17,158.7-95.82,32.5-21.19,61.69-43.5,81.77-77.49,2.4-4.07,4.64-8.27,6.78-12.4,26.88-52.82,32.15-113.76,17.33-170.92C720.72,239,690.75,190.08,651.44,151.74Z" fill="#fff" opacity="0.7" style="isolation:isolate"/></g><g id="f5b48fb5-b7f6-4c0f-be57-6c28708062d9" data-name="freepik--Floor--inject-88"><ellipse cx="420.79" cy="624.06" rx="320.93" ry="27.85" fill="#0071f2"/></g><g id="efa0c278-0043-4a83-b97b-ae792078b220" data-name="freepik--Floor--inject-88" opacity="0.5" style="isolation:isolate"><ellipse cx="420.79" cy="624.06" rx="320.93" ry="27.85" fill="#fff"/></g><path d="M510.3,207.57s13.51-26.85,21.54-36.62c0,0,5.29-14.32,3.83-21.91C535.67,149,513.44,162.24,510.3,207.57Z" fill="#0071f2"/><path d="M510.3,207.57s13.51-26.85,21.54-36.62c0,0,5.29-14.32,3.83-21.91C535.67,149,513.44,162.24,510.3,207.57Z" fill="#fff" opacity="0.5"/><path d="M530.91,136.4s7.57,6,3.71,23.74c0,0-1.09,5.29-2.78,10.81a52.77,52.77,0,0,1-4.61,10.7c-3.33,5.88-10.39,19.41-5.59,20.64,0,0,5.57,2.46,27-29.11a252.29,252.29,0,0,1,20.81-36.68S557.65,124,554.07,108.7c0,0,1.88-8-2.1-12.09l-5.33,9.78S550.55,131.34,530.91,136.4Z" fill="#f9b499"/><path d="M437.43,237.15s-7.74,5.72-2.64,6.16a.38.38,0,0,1,.18.69c-1.7,1.11-4.57,3.37-2.75,4.92,0,0,1.12,1.28,5.4-1a.38.38,0,0,1,.52.53c-.95,1.61-2.18,4.22-.73,4.87,0,0,1.95,1.05,6.19-3.33,0,0,8.87,3.5,13.5,1.49,0,0,4-3.75-1.75-15.32C455.35,236.19,452.47,229.25,437.43,237.15Z" fill="#0071f2"/><path d="M437.43,237.15s-7.74,5.72-2.64,6.16a.38.38,0,0,1,.18.69c-1.7,1.11-4.57,3.37-2.75,4.92,0,0,1.12,1.28,5.4-1a.38.38,0,0,1,.52.53c-.95,1.61-2.18,4.22-.73,4.87,0,0,1.95,1.05,6.19-3.33,0,0,8.87,3.5,13.5,1.49,0,0,4-3.75-1.75-15.32C455.35,236.19,452.47,229.25,437.43,237.15Z" opacity="0.2"/><path d="M493.86,379.72h15s9.45-55.13,9.45-65.37c0,0,.29-34.24-5.56-56.1Z" fill="#0071f2"/><path d="M493.86,379.72h15s9.45-55.13,9.45-65.37c0,0,.29-34.24-5.56-56.1Z" fill="#fff" opacity="0.5"/><path d="M465.86,281.28l7.87-23,38.07,6.49A102,102,0,0,1,514,277c.36,3,.55,5.84.64,8.49l-17.28,6.42Z" fill="#0071f2"/><path d="M465.86,281.28l7.87-23,38.07,6.49A102,102,0,0,1,514,277c.36,3,.55,5.84.64,8.49l-17.28,6.42Z" fill="#fff" opacity="0.6"/><path d="M614,615.56s2.56-4.86,2.56-8.77l23-1s2.57,26.16,0,25.2C639.62,631,624,631,614,615.56Z" fill="#f9b499"/><path d="M506.94,616.05a35.82,35.82,0,0,0,3-12.09l22.88,2.45s2.34,26.07-.24,25.1C532.54,631.51,515.19,634.65,506.94,616.05Z" fill="#f9b499"/><path d="M531.84,171s-9,11-21.54,36.62c0,0-13.44,16.23,0,50.68,0,0,9.11,38.33,3.76,73l-7.64,48.43s-15.76,83.87-11.82,105.92c0,0,9.06,100.41,14.18,122.46,0,0,26.38.79,31.5-1.57,0,0-2.36-96.08,0-116.16,0,0,5.51-38.59,19.69-65.76,0,0-5.46-30.07-6.27-42l-5.07-209.42s-13.85,21.09-23.43,27.68a3.85,3.85,0,0,1-3,.65c-1.57-.31-3.15-1.69-1.08-6.68a84.77,84.77,0,0,1,4.92-11.11S530.68,175.49,531.84,171Z" fill="#0071f2"/><path d="M608.8,607.93s-41.74-106.38-43.94-140.06L560,424.61s-6-31.41-6.27-42c0,0,49.86,2.16,68-.6l-6,80.33A174.57,174.57,0,0,0,620.21,514l21.66,93.91S621.46,608.67,608.8,607.93Z" fill="#0071f2"/><path d="M608.8,607.93s-41.74-106.38-43.94-140.06L560,424.61s-6-31.41-6.27-42c0,0,49.86,2.16,68-.6l-6,80.33A174.57,174.57,0,0,0,620.21,514l21.66,93.91S621.46,608.67,608.8,607.93Z" opacity="0.2"/><rect x="345" y="488.26" width="10.54" height="74.81" fill="#a7a9ac"/><rect x="348.29" y="559.91" width="3.95" height="43.2" fill="#a7a9ac"/><path d="M298.21,620.53v-7.87a7.41,7.41,0,0,1,7.41-7.41h89.86a7.41,7.41,0,0,1,7.41,7.41v7.87h4.51l-.24-9a11.36,11.36,0,0,0-11.36-11.07H304.52a11.37,11.37,0,0,0-11.36,11.66l.22,8.45Z" fill="#a7a9ac"/><path d="M302.89,472.92h94a18.75,18.75,0,0,1,18.75,18.75v.81a0,0,0,0,1,0,0H284.14a0,0,0,0,1,0,0v-.81A18.75,18.75,0,0,1,302.89,472.92Z" fill="#d1d3d4"/><path d="M326.41,170.72s4.17-16.89,25.54-10.4a43.84,43.84,0,0,1,20.48,13.42c7,8.21,14.67,21.87,8.2,38.38,0,0-6.77,14.15-15.4,18.7l-55.92,35.52-13.78,11.17s-18.54-13.31-6-33.34c0,0,3.74-6.94,15.62-20,0,0,16.94-14.56,12.39-35.16a17.7,17.7,0,0,1,.24-9.11A14,14,0,0,1,326.41,170.72Z" fill="#2f2e41"/><path d="M242.7,608.46a.18.18,0,0,1-.06-.34c2-1.19,8.65-6.56,3.76-22.22L207.73,468.77S182,413.72,236,411.68l80.25.55,34.06,60.87L286,472.92,263.19,608.28a5.82,5.82,0,0,0-4-.13s-3.9,2.13-7.89,8.17C251.27,616.32,246.47,609.22,242.7,608.46Z" fill="#2f2e41"/><path d="M242.7,608.46a.18.18,0,0,1-.06-.34c2-1.19,8.65-6.56,3.76-22.22L207.73,468.77S182,413.72,236,411.68l80.25.55,34.06,60.87L286,472.92,263.19,608.28a5.82,5.82,0,0,0-4-.13s-3.9,2.13-7.89,8.17C251.27,616.32,246.47,609.22,242.7,608.46Z" opacity="0.2"/><path d="M372.45,250.1c-16.11,24.25-30.91,23.89-32.53,23.57-16.58-1.77-9.18-21.9-9.18-21.9,3.23-.32,7.09-4.83,7.09-4.83V232.23l.25-.26a15,15,0,0,0,2.77.26c10.19,0,18.72-10.54,20.91-24.66.95,1.59,3.47,1.88,3.47,1.88v31.93a8.77,8.77,0,0,0,6.67,8.6C372.08,250,372.55,249.94,372.45,250.1Z" fill="#f9b499"/><path d="M388.1,286.84c-1.7,5.28-3.53,14.38.56,22l4.82,9.17s-4.59,37.84,8.95,73.16l6.92,20.55a2.15,2.15,0,0,1-1.37,2.73c-4.17,1.34-15.31,3.49-37.66-.81a145.19,145.19,0,0,0-25.46-1.6l-30.5.23s-3.67-28.44-1.15-43.8c0,0,8.49-43.35-3.44-51.37,0,0-12.2,47.92-34.74,72.4l-16.9,22.37-24-.15,32.21-48.63s7.41-12.24,12.24-33.18c0,0,14.81-62.48,29.31-69.89a49.7,49.7,0,0,1,22.86-8.21s-7.4,20.13,9.18,21.9c1.62.32,16.42.68,32.53-23.57,0,0,38.23-3,39.61,28.43,0,0-7.92-8.93-17.41-1.37A20.23,20.23,0,0,0,388.1,286.84Z" fill="#0071f2"/><path d="M311.74,273.88a38,38,0,0,1-.08,14.87,23.55,23.55,0,0,1-1.09,3.69c-.22.6-.52,1.19-.79,1.79s-.51,1-.73,1.58a19.41,19.41,0,0,0-1.67,6.58,25.17,25.17,0,0,0,.4,6.88,17.32,17.32,0,0,0,2.5,6.28,17.13,17.13,0,0,0,4.91,4.83,32.78,32.78,0,0,0,6.54,3.1,22.92,22.92,0,0,1-7.25-1.81,16.76,16.76,0,0,1-6.09-4.74,18,18,0,0,1-3.38-7,26.77,26.77,0,0,1-.62-7.72,21.7,21.7,0,0,1,2.08-7.54c.28-.57.61-1.15.91-1.69s.55-1,.78-1.53a33.32,33.32,0,0,0,1.25-3.26A62.58,62.58,0,0,0,311.74,273.88Z" fill="#0071f2"/><path d="M311.74,273.88a38,38,0,0,1-.08,14.87,23.55,23.55,0,0,1-1.09,3.69c-.22.6-.52,1.19-.79,1.79s-.51,1-.73,1.58a19.41,19.41,0,0,0-1.67,6.58,25.17,25.17,0,0,0,.4,6.88,17.32,17.32,0,0,0,2.5,6.28,17.13,17.13,0,0,0,4.91,4.83,32.78,32.78,0,0,0,6.54,3.1,22.92,22.92,0,0,1-7.25-1.81,16.76,16.76,0,0,1-6.09-4.74,18,18,0,0,1-3.38-7,26.77,26.77,0,0,1-.62-7.72,21.7,21.7,0,0,1,2.08-7.54c.28-.57.61-1.15.91-1.69s.55-1,.78-1.53a33.32,33.32,0,0,0,1.25-3.26A62.58,62.58,0,0,0,311.74,273.88Z" opacity="0.2"/><path d="M390.67,312.62a45.08,45.08,0,0,1-8.73-10.72,43.65,43.65,0,0,1-5.21-13,29.88,29.88,0,0,1,.31-14.13,25.81,25.81,0,0,1,7.17-11.88,35.85,35.85,0,0,0-4.88,12.4,34.27,34.27,0,0,0,.34,13,44.47,44.47,0,0,0,1.8,6.35c.71,2.1,1.61,4.14,2.53,6.18A101.74,101.74,0,0,0,390.67,312.62Z" fill="#0071f2"/><path d="M390.67,312.62a45.08,45.08,0,0,1-8.73-10.72,43.65,43.65,0,0,1-5.21-13,29.88,29.88,0,0,1,.31-14.13,25.81,25.81,0,0,1,7.17-11.88,35.85,35.85,0,0,0-4.88,12.4,34.27,34.27,0,0,0,.34,13,44.47,44.47,0,0,0,1.8,6.35c.71,2.1,1.61,4.14,2.53,6.18A101.74,101.74,0,0,0,390.67,312.62Z" opacity="0.2"/><path d="M384.06,275.44a17.71,17.71,0,0,1,4-7,15.68,15.68,0,0,1,7-4.55,13.43,13.43,0,0,1,8.46.29,16.24,16.24,0,0,1,6.64,4.65,36.61,36.61,0,0,0-7.26-2.38,14.91,14.91,0,0,0-7,.31,19.17,19.17,0,0,0-6.28,3.4A44.64,44.64,0,0,0,384.06,275.44Z" fill="#0071f2"/><path d="M384.06,275.44a17.71,17.71,0,0,1,4-7,15.68,15.68,0,0,1,7-4.55,13.43,13.43,0,0,1,8.46.29,16.24,16.24,0,0,1,6.64,4.65,36.61,36.61,0,0,0-7.26-2.38,14.91,14.91,0,0,0-7,.31,19.17,19.17,0,0,0-6.28,3.4A44.64,44.64,0,0,0,384.06,275.44Z" opacity="0.2"/><path d="M314.36,412.23H263.11S227,417.48,238,461.93l17.71,95s7.73,34.46,1.61,51.21c0,0,5.15-2.26,10.95,6.12,0,0,8.37,11.59,12.24,3.22,0,0,.32-3.87,2.9-3.87a154.93,154.93,0,0,1-.65-53.46s10.63-40.58,2.58-77.94c0,0-5.47-16.11,6.12-14.82,0,0,75,11.92,99.52,1.93,0,0,31.12-10.64,17-54.92,0,0-11.62,3.69-37.66-.81C370.32,413.6,357.89,410.19,314.36,412.23Z" fill="#2f2e41"/><path d="M216.69,639.71h39.76s10.1-.86,7.63-11.6a47.29,47.29,0,0,1-.81-4.88c-.42-3.4-1.46-8.64-3.92-9.61,0,0-2.58-.48-2.9,3.87,0,0,2.74,8-6.74-3.85,0,0-4.5-7.73-11-6.12,0,0-6.71,2.34-10.46,6.51a46,46,0,0,1-7,6.25c-3.22,2.37-7.31,5.28-10.38,7.19,0,0-7.52,6-.56,10.47A11.89,11.89,0,0,0,216.69,639.71Z" fill="#0071f2"/><path d="M216.69,639.71h39.76s10.1-.86,7.63-11.6a47.29,47.29,0,0,1-.81-4.88c-.42-3.4-1.46-8.64-3.92-9.61,0,0-2.58-.48-2.9,3.87,0,0,2.74,8-6.74-3.85,0,0-4.5-7.73-11-6.12,0,0-6.71,2.34-10.46,6.51a46,46,0,0,1-7,6.25c-3.22,2.37-7.31,5.28-10.38,7.19,0,0-7.52,6-.56,10.47A11.89,11.89,0,0,0,216.69,639.71Z" opacity="0.2"/><circle cx="295.2" cy="629.95" r="12.02" fill="#d1d3d4"/><circle cx="295.2" cy="629.95" r="7.19" opacity="0.2"/><circle cx="405.26" cy="629.95" r="12.02" fill="#d1d3d4"/><circle cx="405.26" cy="629.95" r="7.19" opacity="0.2"/><path d="M413.32,354.75,393.48,318s-18.78-23.44,1.17-40.81c0,0,8.59-8.22,17.41,1.37l29.16,80.65s4.83,11.36-14.74,18.6l-69.33,31.41s-2.92,1-8.95,2.49l-50.63.55s-9.34-2.16,0-7.31c0,0,21.26-12.56,34.78-7.73,0,0,10.3,1.61,23.19-4.19Z" fill="#f9b499"/><path d="M337.83,231.92v8.74s22.18,2.41,22.21-26C360,214.65,355.92,233.06,337.83,231.92Z" fill="#f7a48b"/><ellipse cx="524.26" cy="106.72" rx="22.03" ry="30.46" transform="translate(-9.26 146.66) rotate(-15.79)" fill="#f9b499"/><path d="M530.91,136.4s3.85,3.84,4.33,8.94c0,0,9.61-4.54,10.24-23.28C545.48,122.06,542.11,134.08,530.91,136.4Z" fill="#f7a48b"/><path d="M542.8,194.83s9.05-5.22,16.3-26.24c0,0,9.66-24.88,21.25-25.12" fill="none" stroke="#ed1c24" stroke-miterlimit="10"/><path d="M403.34,319.87s-2.31,4.78,18.35,3.37L420.58,319S409,321,403.34,319.87Z" fill="#0071f2"/><path d="M403.34,319.87s-2.31,4.78,18.35,3.37L420.58,319S409,321,403.34,319.87Z" opacity="0.2"/><rect x="440.95" y="239.44" width="5.35" height="7" transform="translate(-38.76 90.85) rotate(-11.21)" fill="#d1d3d4"/><polygon points="432.98 186.19 432.48 188.25 435.52 203.59 436.39 203.42 432.98 186.19" fill="#d1d3d4"/><polygon points="436.39 203.42 435.52 203.59 432.89 204.12 433.5 207.19 439.63 205.97 439.03 202.9 436.39 203.42" fill="#2f2e41"/><polygon points="436.39 203.42 435.52 203.59 432.89 204.12 433.5 207.19 439.63 205.97 439.03 202.9 436.39 203.42" opacity="0.2"/><polygon points="431.97 207.49 432.19 208.63 434.72 208.13 434.77 208.41 432.25 208.91 432.55 210.41 435.07 209.91 435.13 210.19 432.6 210.69 432.9 212.19 435.43 211.69 435.48 211.97 432.95 212.47 433.25 213.97 435.78 213.47 435.83 213.75 433.31 214.25 433.6 215.75 436.13 215.25 436.18 215.53 433.66 216.03 433.96 217.53 436.48 217.03 436.54 217.31 434.01 217.81 434.31 219.31 436.83 218.81 436.89 219.09 434.36 219.59 434.66 221.09 437.19 220.59 437.24 220.87 434.72 221.37 435.01 222.87 437.54 222.37 437.6 222.65 435.07 223.15 435.37 224.65 437.89 224.15 437.95 224.43 435.42 224.93 435.72 226.43 438.25 225.93 438.3 226.21 435.77 226.71 436.07 228.21 438.6 227.71 438.65 227.98 436.13 228.49 436.83 232.03 446.03 230.21 441.16 205.67 439.63 205.97 433.5 207.19 431.97 207.49" fill="#2f2e41"/><rect x="438.1" y="237.99" width="9.38" transform="translate(-37.81 90.59) rotate(-11.21)" fill="#66badc"/><polygon points="436.83 232.03 438.19 238.9 438.19 238.9 447.39 237.08 447.39 237.08 446.03 230.21 446.03 230.21 436.83 232.03 436.83 232.03" fill="#d1d3d4"/><polygon points="434.77 208.41 434.72 208.13 432.19 208.63 432.06 208.66 432.11 208.94 432.25 208.91 434.77 208.41" fill="#fff"/><polygon points="435.07 209.91 432.55 210.41 432.41 210.44 432.46 210.72 432.6 210.69 435.13 210.19 435.07 209.91" fill="#fff"/><polygon points="435.43 211.69 432.9 212.19 432.76 212.22 432.82 212.5 432.95 212.47 435.48 211.97 435.43 211.69" fill="#fff"/><polygon points="435.78 213.47 433.25 213.97 433.11 214 433.17 214.28 433.31 214.25 435.83 213.75 435.78 213.47" fill="#fff"/><polygon points="436.13 215.25 433.6 215.75 433.47 215.78 433.52 216.05 433.66 216.03 436.18 215.53 436.13 215.25" fill="#fff"/><polygon points="436.48 217.03 433.96 217.53 433.82 217.56 433.87 217.83 434.01 217.81 436.54 217.31 436.48 217.03" fill="#fff"/><polygon points="436.83 218.81 434.31 219.31 434.17 219.34 434.23 219.61 434.36 219.59 436.89 219.09 436.83 218.81" fill="#fff"/><polygon points="437.19 220.59 434.66 221.09 434.52 221.12 434.58 221.39 434.72 221.37 437.24 220.87 437.19 220.59" fill="#fff"/><polygon points="437.54 222.37 435.01 222.87 434.88 222.9 434.93 223.17 435.07 223.15 437.6 222.65 437.54 222.37" fill="#fff"/><polygon points="437.89 224.15 435.37 224.65 435.23 224.68 435.28 224.95 435.42 224.93 437.95 224.43 437.89 224.15" fill="#fff"/><polygon points="438.25 225.93 435.72 226.43 435.58 226.46 435.64 226.73 435.77 226.71 438.3 226.21 438.25 225.93" fill="#fff"/><polygon points="438.6 227.71 436.07 228.21 435.94 228.24 435.99 228.51 436.13 228.49 438.65 227.98 438.6 227.71" fill="#fff"/><polygon points="435.39 241 440.32 240.03 445.57 238.99 450.78 237.96 450.51 236.59 435.12 239.64 435.39 241" fill="#bcbec0"/><polygon points="438.88 247.45 439.15 248.84 449.42 246.81 449.14 245.42 446.93 245.86 441.68 246.9 438.88 247.45" fill="#bcbec0"/><path d="M240.74,639.71H280.5s10.1-.86,7.63-11.6a47.29,47.29,0,0,1-.81-4.88c-.42-3.4-1.46-8.64-3.92-9.61,0,0-2.58-.48-2.9,3.87,0,0-2.77,8.62-12.24-3.22,0,0-4.51-7.73-10.95-6.12a25,25,0,0,0-7.89,8.17s-8.54,7.45-14.49,11.15c0,0-7.53,6-.56,10.47A11.89,11.89,0,0,0,240.74,639.71Z" fill="#0071f2"/><path d="M362.31,200.41a46.37,46.37,0,0,1-.55,7.16c-2.19,14.12-10.72,24.66-20.91,24.66a15,15,0,0,1-2.77-.26c-10.54-2-18.69-15.38-18.69-31.56,0-17.57,9.6-31.82,21.46-31.82S362.31,182.84,362.31,200.41Z" fill="#f9b499"/><path d="M377.44,200.41l-13.9-23.82-27-13.35-14.43,15.35a31.21,31.21,0,0,0-2.61,18.29c1-9.83,3-13.58,4.77-15.12.35-.31,3.74-3.17,3.74-3.17h0s9.84,19.23,32,20.59c0,0,4.07-6.07,6.48-4.13,0,0,5,1.95,3.73,9,0,0-1.11,4.93-5,5.4v5.2S374,213.07,377.44,200.41Z" fill="#2f2e41"/><ellipse cx="365.23" cy="202.14" rx="5.19" ry="7.31" fill="#f9b499"/><path d="M541.55,275.44s-9.52-54.85,7.08-102.26c0,0,18-46.1,27.38-39.48,0,0,2.41.83,4.34,9.77,0,0,35.75,28.75,30.44,86.72,0,0-3.86,47.83,5.31,71.5,0,0,16.52,52.16,15.75,76.08a4.07,4.07,0,0,1-3.72,3.94c-13.73,1.18-64.7,5.09-81.59-.3Z" fill="#0071f2"/><path d="M541.55,275.44s-9.52-54.85,7.08-102.26c0,0,18-46.1,27.38-39.48,0,0,2.41.83,4.34,9.77,0,0,35.75,28.75,30.44,86.72,0,0-3.86,47.83,5.31,71.5,0,0,16.52,52.16,15.75,76.08a4.07,4.07,0,0,1-3.72,3.94c-13.73,1.18-64.7,5.09-81.59-.3Z" fill="#fff" opacity="0.5"/><path d="M542.8,309.43l.8,9.55s45.9,1.63,50.62-31.23c0,0,15.6-61.36,7.61-73.1,0,0-3.81,29.77-13.91,51.67,0,0-7.57,29.34-26.34,36.22Z" opacity="0.1"/><path d="M563.12,189c7.66-17.37,17.11-19.22,24.31-17.15a19.51,19.51,0,0,1,13.37,14.29c7.82,32.09-12.88,80.23-12.88,80.23-9.45,31.1-26.34,36.22-26.34,36.22-15.72,7.88-96.51,28.75-96.51,28.75L458,306.48l83.57-31s8.57-5.19,9-19.36C550.52,256.08,556.42,204.11,563.12,189Z" fill="#0071f2"/><path d="M563.12,189c7.66-17.37,17.11-19.22,24.31-17.15a19.51,19.51,0,0,1,13.37,14.29c7.82,32.09-12.88,80.23-12.88,80.23-9.45,31.1-26.34,36.22-26.34,36.22-15.72,7.88-96.51,28.75-96.51,28.75L458,306.48l83.57-31s8.57-5.19,9-19.36C550.52,256.08,556.42,204.11,563.12,189Z" fill="#fff" opacity="0.5"/><path d="M614,615.56s-2.41-7.09-8.53-1.77c0,0-13.85,9.5-25.13,12.23,0,0-8.53,2.42-5.31,9.83,0,0,1.45,3.7,8.7,4h56.07a4.83,4.83,0,0,0,4.82-5.33.68.68,0,0,1,0-.14s-1.13-4.19-5-3.38A32.3,32.3,0,0,1,614,615.56Z" fill="#0071f2"/><path d="M506.94,616.05s-2.42-7.08-8.54-1.77c0,0-13.85,9.5-25.12,12.24,0,0-8.53,2.42-5.31,9.82,0,0,1.45,3.71,8.69,4h56.08a4.82,4.82,0,0,0,4.81-5.34s0-.09,0-.14-1.13-4.18-5-3.38A32.29,32.29,0,0,1,506.94,616.05Z" fill="#0071f2"/><path d="M468.39,273.88s-13.66,1.66-16.69-11.55a7.16,7.16,0,0,0-2.23-3.78c-3.31-2.89-9.83-9.15-9-12.91,0,0-.19-3.09,8.87,2.89,0,0,5.79,5.21,7.52-.39,0,0,1-2.69-2.49-6.74a15.55,15.55,0,0,0-1-1.75,7.25,7.25,0,0,0-9.49-2.27c-2.24,1.19-5.14,2.09-6.46-.23,0,0-.72-3.05,7.18-6.14,0,0,5-4.08,9-.41L463.85,241s3.66,3.28,4.54,12c0,0,1.63,6.36,4.91,6.55Z" fill="#0071f2"/><path d="M420.58,319s-15.18,2.7-19.15.19a1.42,1.42,0,0,1,0-2.32c2-1.47,8-4.6,26.05-8.09,1.4-.27,5.29-2.38,16.39-1.58l14.63,1,5.18,18.15s-11,9.54-24.84,3.22a1,1,0,0,0-1.11,1.69l.09.08a1.93,1.93,0,0,1,.74,1.67c-.1.91-.88,1.83-4.08,1.08,0,0-3.22,4.17-8.37-1C426.08,333.09,423,329.51,420.58,319Z" fill="#0071f2"/><path d="M498.37,77.19c-7.6,16.41,3.2,26.77,3.2,26.77-.68-9.8,2.6-15.56,2.6-15.56s19,16.57,35.75,6.86L552,96.61s3.65,8.5-1.44,13.32c0,0,16.88-2.68,14.2-27.6,0,0,14.48,3.75,18.77-14.47,0,0,3.85-13.17-12-23.42a27.06,27.06,0,0,0-12.25-4.35c-7.12-.62-16.66,1.6-17,17.85,0,0-14.13-6.06-31,4.82A34.71,34.71,0,0,0,498.37,77.19Z" fill="#2f2e41"/><ellipse cx="546.07" cy="98.27" rx="6.12" ry="8.28" transform="translate(-6.14 152.28) rotate(-15.79)" fill="#f9b499"/><g id="ab84aee9-204a-4146-863b-d62f051d01d4" data-name="freepik--Flower--inject-125"><path d="M754.34,545.39h0a.72.72,0,0,1-.72-.72h0c.25-27.63-8.61-132.75-30-164a.72.72,0,0,1,.19-1,.74.74,0,0,1,1,.18c21.86,32,30.4,136.09,30.21,164.79A.73.73,0,0,1,754.34,545.39Z" fill="#0071f2"/><path d="M762.1,537.75H746.59c-12.27,33.57-7,105.76,0,105.76H762.1C769.09,643.51,774.36,571.32,762.1,537.75Z" fill="#2f2e41"/><path d="M729.81,394.42c3.29,2.32,3.69,4.94,2.36,6.8s-3.87,2.47-7.21.15-5.82-9.21-5.82-9.21S726.47,392.1,729.81,394.42Z" fill="#0071f2"/><path d="M749.57,425.7c-1.1,3.92-3.41,5.09-5.67,4.44s-3.6-2.84-2.5-6.75,6.82-8.47,6.82-8.47S750.67,421.8,749.57,425.7Z" fill="#0071f2"/><path d="M744.18,451.76c2.79,2.95,2.62,5.53.93,7.13s-4.28,1.65-7.08-1.3-3.82-10.21-3.82-10.21S741.39,448.81,744.18,451.76Z" fill="#0071f2"/><path d="M760.11,498.55c-1.65,3.74-4,4.61-6.2,3.69s-3.19-3.29-1.64-7,7.93-7.56,7.93-7.56S761.7,494.83,760.11,498.55Z" fill="#0071f2"/><path d="M718.29,372.49c-2.69-2.54,3.29-9.88,7.42-9.7,2.14.13,1.65,3.16,1.78,5.68s-.3,4.84-3.64,5.47S719.57,373.76,718.29,372.49Z" fill="#0071f2"/><path d="M718.29,372.49c-2.69-2.54,3.29-9.88,7.42-9.7,2.14.13,1.65,3.16,1.78,5.68s-.3,4.84-3.64,5.47S719.57,373.76,718.29,372.49Z" opacity="0.2" style="isolation:isolate"/><path d="M724.77,369.43c-.24-3.69-9.87-3.76-12.2-.47-1.26,1.75,2.77,2.13,4,4.35s3.18,3.51,5.79,1.33S724.89,371.19,724.77,369.43Z" fill="#0071f2"/><path d="M727.74,372.24c-.33-4.94-12.93-4.94-16.1-.61-1.65,2.29,1.79,4.38,4.28,6.59s5.17,3.77,8.62.9S727.89,374.56,727.74,372.24Z" fill="#407bff"/><path d="M727.74,372.24c-.33-4.94-12.93-4.94-16.1-.61-1.65,2.29,1.79,4.38,4.28,6.59s5.17,3.77,8.62.9S727.89,374.56,727.74,372.24Z" opacity="0.2" style="isolation:isolate"/><path d="M719.18,376.27c-3.54-3.29,4.41-13.17,9.87-12.79,2.82.17-.16,4.6,1.06,7.69s.9,6.19-3.51,7S720.87,377.86,719.18,376.27Z" fill="#407bff"/><path d="M727.74,372.24c-.33-4.94-12.93-4.94-16.1-.61-1.65,2.29,1.79,4.38,4.28,6.59s5.17,3.77,8.62.9S727.89,374.56,727.74,372.24Z" fill="#0071f2"/><path d="M727.74,372.24c-.33-4.94-12.93-4.94-16.1-.61-1.65,2.29,1.79,4.38,4.28,6.59s5.17,3.77,8.62.9S727.89,374.56,727.74,372.24Z" opacity="0.2" style="isolation:isolate"/><path d="M719.18,376.27c-3.54-3.29,4.41-13.17,9.87-12.79,2.82.17-.16,4.6,1.06,7.69s.9,6.19-3.51,7S720.87,377.86,719.18,376.27Z" fill="#0071f2"/><path d="M720.1,381.84c-4.08-3.85,5.07-15.1,11.26-14.72,3.29.2,2.57,4.79,2.7,8.63s-.45,7.34-5.52,8.23S722,383.63,720.1,381.84Z" fill="#0071f2"/><path d="M720.1,381.84c-4.08-3.85,5.07-15.1,11.26-14.72,3.29.2,2.57,4.79,2.7,8.63s-.45,7.34-5.52,8.23S722,383.63,720.1,381.84Z" opacity="0.2" style="isolation:isolate"/><path d="M729.93,377.21c-.37-5.59-14.82-5.71-18.52-.7-1.91,2.63,4.19,3.29,6,6.58s4.84,5.34,8.81,2S730.11,379.86,729.93,377.21Z" fill="#0071f2"/></g><g id="e0911c95-7b09-4285-960b-405731f1b9c1" data-name="freepik--Virus--inject-88"><path d="M432.3,119.65c.24.68.81,1.77,1.42,1.77.92,0,1.67-1.34,1.67-3s-.75-3-1.67-3c-.55,0-1.1,1-1.35,1.53l-6.21-.18a28.36,28.36,0,0,0-3-11.26l8.19-5.05c.6.53,1.75,1.25,2.32.91.88-.51.86-2.19-.05-3.77s-2.36-2.44-3.24-1.93c-.52.3-.52,1.51-.44,2.2l-8.52,4.59a29,29,0,0,0-8.28-8.2l2.91-5.39c.71.14,1.94.19,2.24-.34.46-.8-.32-2.12-1.75-2.94s-3-.85-3.43,0c-.28.47.27,1.43.65,1.93l-3.18,5.24a28.61,28.61,0,0,0-11.24-3l-.28-9.62c.76-.26,1.95-.89,1.95-1.56,0-1-1.47-1.84-3.29-1.84s-3.3.82-3.3,1.84c0,.6,1.05,1.21,1.69,1.48l-.28,9.7a28.61,28.61,0,0,0-11.24,3l-3.22-5.22c.48-.54,1.13-1.58.83-2.11-.46-.8-2-.78-3.43,0s-2.22,2.14-1.75,2.94c.27.48,1.37.48,2,.4l3,5.45a29.13,29.13,0,0,0-8.28,8.2l-8.45-4.55c.15-.78.2-2.13-.38-2.47-.88-.51-2.33.36-3.24,1.93s-.93,3.27-.05,3.78c.52.3,1.57-.31,2.12-.73l8.26,5.09a28.36,28.36,0,0,0-3,11.26l-6.14.18c-.24-.68-.81-1.77-1.42-1.77-.92,0-1.67,1.34-1.67,3s.75,3,1.67,3c.55,0,1.1-1,1.35-1.53l6.21.18a28.32,28.32,0,0,0,3,11.26l-8.19,5c-.6-.52-1.74-1.24-2.32-.9-.88.5-.86,2.19.05,3.77s2.36,2.44,3.24,1.93c.52-.3.52-1.51.44-2.2l8.52-4.6a28.78,28.78,0,0,0,8.28,8.21l-2.91,5.38c-.71-.14-1.94-.18-2.24.34-.46.81.32,2.13,1.75,3s3,.85,3.43,0c.28-.48-.27-1.43-.65-1.93l3.25-5.28a28.46,28.46,0,0,0,11.24,3l.28,9.62c-.76.26-1.95.89-1.95,1.56,0,1,1.48,1.84,3.29,1.84s3.3-.82,3.3-1.84c0-.6-1.05-1.21-1.69-1.48l.28-9.7a28.33,28.33,0,0,0,11.18-3l3.22,5.22c-.48.54-1.13,1.58-.83,2.11.46.8,2,.78,3.43-.05s2.22-2.14,1.75-2.95c-.27-.47-1.37-.47-2-.39l-2.95-5.46a28.5,28.5,0,0,0,8.28-8.2l8.45,4.56c-.15.78-.2,2.13.38,2.47.88.51,2.33-.36,3.24-1.93s.93-3.27.05-3.78c-.52-.3-1.57.31-2.12.72l-8.26-5.08a28.37,28.37,0,0,0,3-11.27Z" fill="none" stroke="#787878" stroke-linecap="round" stroke-linejoin="round"/><path d="M399.79,96.4a3,3,0,1,1-3.18-2.8h.18a2.9,2.9,0,0,1,3,2.78Z" fill="none" stroke="#787878" stroke-linecap="round" stroke-linejoin="round"/><path d="M382,119.15a3,3,0,1,1-3.18-2.8H379a2.88,2.88,0,0,1,2.95,2.81Z" fill="none" stroke="#787878" stroke-linecap="round" stroke-linejoin="round"/><path d="M395.17,111.84A3,3,0,1,1,392,109h.18a2.9,2.9,0,0,1,3,2.78Z" fill="none" stroke="#787878" stroke-linecap="round" stroke-linejoin="round"/><path d="M388.28,136.3a3,3,0,1,1-3.18-2.8h.18a2.9,2.9,0,0,1,3,2.78Z" fill="none" stroke="#787878" stroke-linecap="round" stroke-linejoin="round"/><path d="M420.47,124.49a3,3,0,1,1-3.18-2.8h.23a2.88,2.88,0,0,1,3,2.81Z" fill="none" stroke="#787878" stroke-linecap="round" stroke-linejoin="round"/><path d="M399.34,128.33a3,3,0,1,1-3.18-2.8h.23a2.88,2.88,0,0,1,2.95,2.81Z" fill="none" stroke="#787878" stroke-linecap="round" stroke-linejoin="round"/><path d="M408.9,117.09a3,3,0,1,1-3.18-2.81H406a2.88,2.88,0,0,1,2.95,2.81Z" fill="none" stroke="#787878" stroke-linecap="round" stroke-linejoin="round"/><path d="M416,104a3,3,0,1,1-3.18-2.81h.23a2.88,2.88,0,0,1,3,2.81Z" fill="none" stroke="#787878" stroke-linecap="round" stroke-linejoin="round"/><path d="M409.22,137.71A3,3,0,1,1,406,134.9h.23a2.88,2.88,0,0,1,3,2.81Z" fill="none" stroke="#787878" stroke-linecap="round" stroke-linejoin="round"/><path d="M385,101.4a3,3,0,1,1-3.18-2.8h.23a2.88,2.88,0,0,1,3,2.81Z" fill="none" stroke="#787878" stroke-linecap="round" stroke-linejoin="round"/><path d="M695.41,210.58c.11.32.37.82.65.82.43,0,.78-.62.78-1.38s-.35-1.39-.78-1.39c-.25,0-.5.44-.62.71l-2.86-.08a13.08,13.08,0,0,0-1.37-5.2l3.78-2.32c.28.24.8.57,1.07.42s.4-1,0-1.74-1.09-1.13-1.5-.89c-.24.13-.24.69-.2,1l-3.93,2.12a13.1,13.1,0,0,0-3.82-3.78l1.34-2.49c.33.07.9.09,1-.16a1.45,1.45,0,0,0-.81-1.36c-.66-.36-1.37-.39-1.59,0-.12.22.13.66.31.89l-1.5,2.44a13.21,13.21,0,0,0-5.19-1.41l-.13-4.44c.35-.12.9-.41.9-.71,0-.47-.68-.85-1.52-.85s-1.51.38-1.51.85c0,.27.48.55.77.68l-.13,4.47a13.21,13.21,0,0,0-5.18,1.41l-1.48-2.41c.22-.25.52-.73.38-1s-.92-.36-1.59,0-1,1-.8,1.36.63.22.92.18l1.35,2.52a13.32,13.32,0,0,0-3.81,3.78l-3.9-2.1c.07-.36.09-1-.17-1.14s-1.08.16-1.5.89-.43,1.51,0,1.74c.24.14.72-.14,1-.33l3.8,2.35a13.19,13.19,0,0,0-1.36,5.19l-2.83.08c-.11-.32-.38-.82-.66-.82s-.77.62-.77,1.39.35,1.38.77,1.38c.26,0,.51-.44.62-.71l2.87.08a13.41,13.41,0,0,0,1.36,5.2l-3.77,2.32c-.28-.24-.81-.57-1.07-.42s-.4,1,0,1.75,1.09,1.12,1.5.89c.24-.14.24-.7.2-1l3.93-2.12a13.32,13.32,0,0,0,3.81,3.78l-1.34,2.49c-.32-.06-.89-.09-1,.16a1.43,1.43,0,0,0,.81,1.36c.66.36,1.37.39,1.58,0,.13-.22-.13-.66-.3-.89l1.5-2.44a13.21,13.21,0,0,0,5.18,1.41l.13,4.44c-.35.12-.9.41-.9.71,0,.47.68.86,1.52.86s1.52-.39,1.52-.86c0-.27-.48-.55-.78-.68l.13-4.47a13.21,13.21,0,0,0,5.19-1.41l1.48,2.41c-.22.25-.52.73-.38,1s.92.36,1.58,0,1-1,.81-1.36-.63-.22-.92-.18L686.59,221a13.1,13.1,0,0,0,3.82-3.78l3.9,2.1c-.07.36-.1,1,.17,1.14s1.08-.16,1.5-.89.43-1.51,0-1.74c-.24-.14-.73.14-1,.33l-3.81-2.34a13.08,13.08,0,0,0,1.37-5.2Z" fill="none" stroke="#787878" stroke-linecap="round" stroke-linejoin="round"/><ellipse cx="679.05" cy="199.86" rx="1.36" ry="1.3" fill="none" stroke="#787878" stroke-linecap="round" stroke-linejoin="round"/><path d="M672.19,210.35a1.37,1.37,0,1,1-1.44-1.3h.07a1.32,1.32,0,0,1,1.37,1.29Z" fill="none" stroke="#787878" stroke-linecap="round" stroke-linejoin="round"/><path d="M678.28,207a1.36,1.36,0,1,1-2.71.12,1.35,1.35,0,0,1,1.29-1.42h.06a1.32,1.32,0,0,1,1.36,1.3Z" fill="none" stroke="#787878" stroke-linecap="round" stroke-linejoin="round"/><path d="M675.1,218.26a1.36,1.36,0,1,1-2.71.12,1.35,1.35,0,0,1,1.29-1.42h.06a1.32,1.32,0,0,1,1.36,1.3Z" fill="none" stroke="#787878" stroke-linecap="round" stroke-linejoin="round"/><path d="M690,212.81a1.36,1.36,0,1,1-1.43-1.29h.07A1.33,1.33,0,0,1,690,212.81Z" fill="none" stroke="#787878" stroke-linecap="round" stroke-linejoin="round"/><path d="M680.21,214.59a1.37,1.37,0,1,1-1.44-1.3h.08a1.32,1.32,0,0,1,1.36,1.3Z" fill="none" stroke="#787878" stroke-linecap="round" stroke-linejoin="round"/><path d="M684.62,209.4a1.37,1.37,0,1,1-1.44-1.3h.08a1.32,1.32,0,0,1,1.36,1.3Z" fill="none" stroke="#787878" stroke-linecap="round" stroke-linejoin="round"/><path d="M687.91,203.36a1.37,1.37,0,1,1-1.44-1.3h.08a1.32,1.32,0,0,1,1.36,1.3Z" fill="none" stroke="#787878" stroke-linecap="round" stroke-linejoin="round"/><path d="M684.77,218.91a1.37,1.37,0,1,1-1.44-1.3h.07a1.32,1.32,0,0,1,1.37,1.29Z" fill="none" stroke="#787878" stroke-linecap="round" stroke-linejoin="round"/><path d="M673.61,202.18a1.36,1.36,0,1,1-2.71.12,1.35,1.35,0,0,1,1.29-1.42h.06A1.34,1.34,0,0,1,673.61,202.18Z" fill="none" stroke="#787878" stroke-linecap="round" stroke-linejoin="round"/><path d="M178.8,123.72c.11.32.37.82.65.82s.78-.62.78-1.38-.35-1.38-.78-1.38c-.25,0-.5.44-.62.7L176,122.4a13.11,13.11,0,0,0-1.39-5.19l3.78-2.33c.28.24.8.57,1.07.42s.4-1,0-1.74-1.09-1.13-1.5-.89c-.24.13-.24.69-.2,1l-3.93,2.12A13.36,13.36,0,0,0,170,112l1.34-2.49c.33.07.9.09,1-.16a1.45,1.45,0,0,0-.81-1.36c-.66-.36-1.37-.39-1.58,0-.13.22.12.66.3.89l-1.5,2.44a13.61,13.61,0,0,0-5.15-1.42l-.13-4.43c.35-.12.9-.42.9-.72,0-.47-.68-.85-1.52-.85s-1.51.38-1.51.85c0,.27.48.55.77.68l-.13,4.47a13.51,13.51,0,0,0-5.18,1.41l-1.48-2.41c.22-.25.52-.73.38-1s-.92-.36-1.58,0-1,1-.81,1.36.63.22.92.18l1.37,2.57a13.45,13.45,0,0,0-3.81,3.78l-3.9-2.1c.07-.36.09-1-.17-1.14s-1.08.16-1.5.89-.43,1.51,0,1.74c.24.14.72-.14,1-.33l3.8,2.35a13.27,13.27,0,0,0-1.42,5.19l-2.83.08c-.11-.31-.38-.81-.66-.81s-.77.61-.77,1.38.35,1.38.77,1.38c.26,0,.51-.44.62-.71l2.87.08a13.41,13.41,0,0,0,1.36,5.2l-3.77,2.32c-.28-.24-.81-.57-1.07-.41s-.4,1,0,1.74,1.09,1.12,1.5.89c.24-.14.24-.7.2-1l3.95-2.14a12.9,12.9,0,0,0,3.83,3.78l-1.35,2.49c-.32-.06-.89-.08-1,.16a1.44,1.44,0,0,0,.81,1.36c.66.36,1.37.39,1.58,0,.13-.22-.13-.66-.3-.89l1.5-2.44a12.83,12.83,0,0,0,5.18,1.41l.13,4.44c-.35.12-.9.41-.9.72,0,.47.68.85,1.52.85s1.52-.38,1.52-.85c0-.28-.48-.56-.78-.69l.13-4.47a12.88,12.88,0,0,0,5.19-1.41l1.48,2.41c-.22.25-.52.73-.38,1s.92.36,1.58,0,1-1,.81-1.36-.63-.22-.92-.18L170,134.21a13,13,0,0,0,3.78-3.81l3.9,2.1c-.07.36-.1,1,.17,1.14s1.08-.16,1.5-.89.43-1.5,0-1.74c-.24-.14-.73.14-1,.33L174.58,129a13.25,13.25,0,0,0,1.37-5.2Z" fill="none" stroke="#787878" stroke-linecap="round" stroke-linejoin="round"/><path d="M163.8,113a1.36,1.36,0,1,1-1.42-1.29h.06a1.34,1.34,0,0,1,1.36,1.3Z" fill="none" stroke="#787878" stroke-linecap="round" stroke-linejoin="round"/><path d="M155.58,123.49a1.37,1.37,0,1,1-1.44-1.29h.07a1.34,1.34,0,0,1,1.37,1.29Z" fill="none" stroke="#787878" stroke-linecap="round" stroke-linejoin="round"/><ellipse cx="160.31" cy="120.12" rx="1.36" ry="1.3" fill="none" stroke="#787878" stroke-linecap="round" stroke-linejoin="round"/><path d="M158.49,131.4a1.36,1.36,0,1,1-1.42-1.29h.06a1.34,1.34,0,0,1,1.36,1.3Z" fill="none" stroke="#787878" stroke-linecap="round" stroke-linejoin="round"/><path d="M173.34,126a1.36,1.36,0,0,1-2.72.14,1.35,1.35,0,0,1,1.29-1.42H172A1.33,1.33,0,0,1,173.34,126Z" fill="none" stroke="#787878" stroke-linecap="round" stroke-linejoin="round"/><path d="M163.58,127.73a1.37,1.37,0,1,1-1.44-1.29h.08a1.34,1.34,0,0,1,1.36,1.3Z" fill="none" stroke="#787878" stroke-linecap="round" stroke-linejoin="round"/><path d="M168,122.54a1.37,1.37,0,1,1-1.44-1.29h.08a1.34,1.34,0,0,1,1.36,1.3Z" fill="none" stroke="#787878" stroke-linecap="round" stroke-linejoin="round"/><path d="M171.3,116.5a1.37,1.37,0,1,1-1.44-1.29h.08a1.34,1.34,0,0,1,1.36,1.3Z" fill="none" stroke="#787878" stroke-linecap="round" stroke-linejoin="round"/><path d="M168.16,132.05a1.37,1.37,0,1,1-1.44-1.29h.07a1.34,1.34,0,0,1,1.37,1.29Z" fill="none" stroke="#787878" stroke-linecap="round" stroke-linejoin="round"/><path d="M157,115.32a1.36,1.36,0,1,1-1.42-1.29h.06a1.34,1.34,0,0,1,1.36,1.3Z" fill="none" stroke="#787878" stroke-linecap="round" stroke-linejoin="round"/><path d="M482.3,50.82c.11.31.38.81.66.81s.77-.61.77-1.38-.35-1.38-.77-1.38c-.26,0-.51.44-.62.71l-2.87-.08a13.33,13.33,0,0,0-1.36-5.2L481.88,42c.28.25.81.58,1.07.42s.4-1,0-1.74-1.09-1.12-1.49-.89c-.24.14-.24.7-.21,1l-3.93,2.12a13.61,13.61,0,0,0-3.81-3.79l1.34-2.48c.32.06.89.08,1-.16a1.44,1.44,0,0,0-.81-1.36c-.66-.36-1.37-.39-1.58,0s.13.66.3.89l-1.49,2.42A13.16,13.16,0,0,0,467.09,37L467,32.55c.35-.12.9-.41.9-.72,0-.47-.68-.85-1.52-.85s-1.52.38-1.52.85c0,.28.48.56.78.68L465.47,37a13.21,13.21,0,0,0-5.19,1.41L458.8,36c.22-.25.52-.73.38-1s-.92-.36-1.58,0-1,1-.81,1.36.63.21.92.18L459.07,39a13.26,13.26,0,0,0-3.82,3.79l-3.9-2.1c.07-.37.1-1-.17-1.14s-1.08.16-1.5.89-.42,1.5,0,1.74c.24.14.73-.14,1-.33l3.81,2.34a13.08,13.08,0,0,0-1.37,5.2l-2.83.08c-.11-.32-.37-.82-.65-.82s-.77.62-.77,1.38.34,1.38.77,1.38c.25,0,.5-.44.62-.7l2.86.08A13,13,0,0,0,454.49,56l-3.82,2.38c-.27-.24-.8-.57-1.07-.42s-.4,1,0,1.74,1.09,1.13,1.5.89c.24-.14.24-.69.2-1l3.93-2.12a13.1,13.1,0,0,0,3.82,3.78l-1.34,2.49c-.33-.07-.9-.09-1,.15a1.46,1.46,0,0,0,.81,1.36c.66.36,1.37.39,1.59,0s-.13-.66-.31-.89l1.5-2.44a13.18,13.18,0,0,0,5.17,1.46l.13,4.43c-.35.12-.9.42-.9.72,0,.47.68.85,1.52.85s1.52-.38,1.52-.85c0-.27-.49-.55-.78-.68l.13-4.47A13.21,13.21,0,0,0,472.27,62l1.48,2.41c-.22.25-.52.73-.38,1s.93.36,1.59,0,1-1,.8-1.36-.63-.22-.92-.18l-1.35-2.52a13.48,13.48,0,0,0,3.82-3.78l3.89,2.1c-.07.36-.09,1,.17,1.14s1.08-.17,1.5-.89.43-1.51,0-1.74c-.24-.14-.72.14-1,.33l-3.8-2.35A13.15,13.15,0,0,0,479.43,51Z" fill="none" stroke="#787878" stroke-linecap="round" stroke-linejoin="round"/><path d="M467.31,40.1a1.37,1.37,0,1,1-1.44-1.29H466A1.34,1.34,0,0,1,467.31,40.1Z" fill="none" stroke="#787878" stroke-linecap="round" stroke-linejoin="round"/><path d="M459.08,50.59a1.36,1.36,0,1,1-1.42-1.29h.06a1.34,1.34,0,0,1,1.36,1.3Z" fill="none" stroke="#787878" stroke-linecap="round" stroke-linejoin="round"/><path d="M465.18,47.22a1.37,1.37,0,1,1-1.44-1.29h.07a1.34,1.34,0,0,1,1.37,1.29Z" fill="none" stroke="#787878" stroke-linecap="round" stroke-linejoin="round"/><path d="M462,58.5a1.37,1.37,0,1,1-1.44-1.29h.08A1.34,1.34,0,0,1,462,58.5Z" fill="none" stroke="#787878" stroke-linecap="round" stroke-linejoin="round"/><path d="M476.85,53.05a1.37,1.37,0,1,1-1.44-1.29h.08a1.34,1.34,0,0,1,1.36,1.3Z" fill="none" stroke="#787878" stroke-linecap="round" stroke-linejoin="round"/><path d="M467.1,54.82a1.36,1.36,0,1,1-2.72.14,1.35,1.35,0,0,1,1.29-1.42h.07A1.33,1.33,0,0,1,467.1,54.82Z" fill="none" stroke="#787878" stroke-linecap="round" stroke-linejoin="round"/><path d="M471.51,49.64a1.36,1.36,0,1,1-1.42-1.29h.06a1.34,1.34,0,0,1,1.36,1.3Z" fill="none" stroke="#787878" stroke-linecap="round" stroke-linejoin="round"/><path d="M474.8,43.59a1.36,1.36,0,1,1-2.72.14,1.35,1.35,0,0,1,1.29-1.42h.07A1.33,1.33,0,0,1,474.8,43.59Z" fill="none" stroke="#787878" stroke-linecap="round" stroke-linejoin="round"/><path d="M471.66,59.15a1.36,1.36,0,1,1-1.42-1.29h.06a1.34,1.34,0,0,1,1.36,1.3Z" fill="none" stroke="#787878" stroke-linecap="round" stroke-linejoin="round"/><path d="M460.51,42.4a1.37,1.37,0,1,1-1.44-1.29h.07a1.34,1.34,0,0,1,1.37,1.29Z" fill="none" stroke="#787878" stroke-linecap="round" stroke-linejoin="round"/><path d="M175,319.81c.11.32.38.82.66.82s.77-.62.77-1.38-.35-1.38-.77-1.38c-.26,0-.51.44-.62.7l-2.9-.08a13.37,13.37,0,0,0-1.36-5.19l3.77-2.33c.28.24.81.57,1.07.42.41-.24.4-1,0-1.74s-1.09-1.13-1.5-.89c-.24.14-.24.69-.2,1L170,311.88a13.32,13.32,0,0,0-3.81-3.78l1.34-2.49c.32.07.89.09,1-.16a1.41,1.41,0,0,0-.81-1.35c-.66-.35-1.37-.4-1.58,0-.13.22.13.66.3.89l-1.5,2.44a13.21,13.21,0,0,0-5.18-1.41l-.13-4.43c.35-.12.9-.42.9-.72,0-.47-.68-.85-1.52-.85s-1.52.38-1.52.85c0,.27.48.55.78.68l-.13,4.47a13.26,13.26,0,0,0-5.19,1.41L151.44,305c.22-.25.52-.73.38-1s-.92-.36-1.58,0-1,1-.81,1.36.63.22.92.18l1.36,2.52a13.1,13.1,0,0,0-3.82,3.78l-3.9-2.1c.07-.36.1-1-.17-1.14s-1.08.16-1.5.89-.43,1.51,0,1.74c.24.14.73-.14,1-.33l3.8,2.37a13,13,0,0,0-1.37,5.19l-2.83.08c-.11-.31-.37-.81-.65-.81-.43,0-.78.61-.78,1.38s.35,1.38.78,1.38c.25,0,.5-.44.62-.71l2.86.08a13.08,13.08,0,0,0,1.37,5.2l-3.78,2.33c-.28-.25-.8-.58-1.07-.42s-.4,1,0,1.74,1.09,1.12,1.5.89c.24-.14.24-.7.2-1l3.93-2.12a13.26,13.26,0,0,0,3.82,3.79l-1.34,2.48c-.33-.06-.9-.08-1,.16a1.46,1.46,0,0,0,.81,1.36c.66.36,1.37.39,1.59,0,.12-.22-.13-.66-.31-.89L153,331a12.88,12.88,0,0,0,5.19,1.41l.13,4.44c-.35.12-.9.41-.9.72,0,.47.68.85,1.52.85s1.51-.38,1.51-.85c0-.28-.48-.56-.77-.69l.13-4.47A13.16,13.16,0,0,0,165,331l1.48,2.41c-.22.25-.52.73-.38,1s.92.36,1.58,0,1-1,.81-1.36-.63-.22-.92-.18l-1.36-2.54A13.35,13.35,0,0,0,170,326.5l3.9,2.1c-.07.37-.09,1,.17,1.14s1.08-.16,1.5-.89.43-1.5,0-1.74c-.24-.14-.72.14-1,.33l-3.8-2.34a13.41,13.41,0,0,0,1.36-5.2Z" fill="none" stroke="#787878" stroke-linecap="round" stroke-linejoin="round"/><path d="M160,309.09a1.37,1.37,0,1,1-1.44-1.3h.07a1.33,1.33,0,0,1,1.37,1.29Z" fill="none" stroke="#787878" stroke-linecap="round" stroke-linejoin="round"/><path d="M151.76,319.58a1.36,1.36,0,1,1-1.42-1.3h.06a1.33,1.33,0,0,1,1.36,1.3Z" fill="none" stroke="#787878" stroke-linecap="round" stroke-linejoin="round"/><ellipse cx="156.49" cy="316.21" rx="1.36" ry="1.3" fill="none" stroke="#787878" stroke-linecap="round" stroke-linejoin="round"/><path d="M154.68,327.49a1.37,1.37,0,1,1-1.45-1.29h.08a1.33,1.33,0,0,1,1.37,1.29Z" fill="none" stroke="#787878" stroke-linecap="round" stroke-linejoin="round"/><path d="M169.53,322a1.37,1.37,0,1,1-1.45-1.29h.09A1.33,1.33,0,0,1,169.53,322Z" fill="none" stroke="#787878" stroke-linecap="round" stroke-linejoin="round"/><path d="M159.78,323.82a1.36,1.36,0,1,1-1.42-1.3h.06a1.33,1.33,0,0,1,1.36,1.3Z" fill="none" stroke="#787878" stroke-linecap="round" stroke-linejoin="round"/><path d="M164.19,318.63a1.36,1.36,0,1,1-1.42-1.3h.06a1.33,1.33,0,0,1,1.36,1.3Z" fill="none" stroke="#787878" stroke-linecap="round" stroke-linejoin="round"/><path d="M167.48,312.59a1.36,1.36,0,1,1-1.42-1.3h.06a1.33,1.33,0,0,1,1.36,1.3Z" fill="none" stroke="#787878" stroke-linecap="round" stroke-linejoin="round"/><path d="M164.34,328.14a1.36,1.36,0,1,1-1.42-1.3H163a1.33,1.33,0,0,1,1.36,1.3Z" fill="none" stroke="#787878" stroke-linecap="round" stroke-linejoin="round"/><path d="M153.19,311.41a1.37,1.37,0,1,1-1.44-1.3h.07a1.33,1.33,0,0,1,1.37,1.29Z" fill="none" stroke="#787878" stroke-linecap="round" stroke-linejoin="round"/><path d="M283.08,51.94c.11.32.37.82.65.82s.78-.62.78-1.38-.35-1.38-.78-1.38c-.25,0-.5.44-.62.7l-2.86-.08a13.22,13.22,0,0,0-1.37-5.22l3.78-2.33c.28.24.8.57,1.07.42s.4-1,0-1.74-1.09-1.13-1.5-.89c-.24.13-.24.69-.2,1L278.1,44a13.36,13.36,0,0,0-3.82-3.78l1.3-2.45c.33.07.9.09,1-.16a1.45,1.45,0,0,0-.81-1.36c-.66-.36-1.37-.39-1.58,0-.13.22.12.66.3.89L273,39.56a13.61,13.61,0,0,0-5.19-1.41l-.13-4.43c.35-.12.9-.42.9-.72,0-.47-.68-.85-1.52-.85s-1.51.38-1.51.85c0,.27.48.55.77.68l-.13,4.47A13.51,13.51,0,0,0,261,39.56l-1.42-2.43c.22-.25.52-.73.38-1s-.92-.36-1.58,0-1,1-.81,1.36.63.22.92.18l1.36,2.52A13.36,13.36,0,0,0,256,44l-3.9-2.1c.07-.36.09-1-.17-1.14-.41-.23-1.08.16-1.5.89s-.43,1.51,0,1.74c.24.14.72-.14,1-.33l3.8,2.35a13.24,13.24,0,0,0-1.36,5.19l-2.83.08c-.11-.31-.38-.82-.65-.82-.43,0-.78.62-.78,1.39s.35,1.38.78,1.38c.25,0,.5-.44.61-.71l2.87.08a13.41,13.41,0,0,0,1.36,5.2l-3.77,2.32c-.28-.24-.81-.57-1.07-.41s-.4,1,0,1.74,1.09,1.12,1.5.89c.24-.14.24-.7.2-1l3.93-2.12a13,13,0,0,0,3.8,3.81l-1.34,2.49c-.33-.06-.9-.08-1,.16a1.46,1.46,0,0,0,.81,1.36c.66.36,1.37.39,1.58,0,.13-.22-.13-.66-.3-.89l1.5-2.44a12.83,12.83,0,0,0,5.18,1.41l.13,4.44c-.34.12-.9.41-.9.72s.68.85,1.52.85,1.52-.39,1.52-.85c0-.28-.48-.56-.78-.69l.13-4.47a12.88,12.88,0,0,0,5.19-1.41l1.49,2.43c-.22.25-.52.73-.38,1s.92.36,1.58,0,1-1,.81-1.36-.63-.22-.92-.18l-1.41-2.57a13.1,13.1,0,0,0,3.82-3.78l3.9,2.1c-.07.36-.09,1,.17,1.14.41.24,1.08-.16,1.5-.89s.43-1.5,0-1.74c-.24-.14-.72.14-1,.33l-3.81-2.34a13.25,13.25,0,0,0,1.37-5.2Z" fill="none" stroke="#787878" stroke-linecap="round" stroke-linejoin="round"/><path d="M268.08,41.22a1.36,1.36,0,1,1-1.42-1.29h.06a1.34,1.34,0,0,1,1.36,1.3Z" fill="none" stroke="#787878" stroke-linecap="round" stroke-linejoin="round"/><path d="M259.86,51.71a1.37,1.37,0,1,1-1.44-1.29h.07a1.34,1.34,0,0,1,1.37,1.29Z" fill="none" stroke="#787878" stroke-linecap="round" stroke-linejoin="round"/><ellipse cx="264.59" cy="48.34" rx="1.36" ry="1.3" fill="none" stroke="#787878" stroke-linecap="round" stroke-linejoin="round"/><path d="M262.77,59.62a1.36,1.36,0,1,1-1.42-1.29h.06a1.34,1.34,0,0,1,1.36,1.3Z" fill="none" stroke="#787878" stroke-linecap="round" stroke-linejoin="round"/><path d="M277.58,54.17a1.36,1.36,0,0,1-2.72.14,1.35,1.35,0,0,1,1.29-1.42h.07A1.33,1.33,0,0,1,277.58,54.17Z" fill="none" stroke="#787878" stroke-linecap="round" stroke-linejoin="round"/><path d="M267.88,56a1.36,1.36,0,1,1-1.42-1.29h.06a1.34,1.34,0,0,1,1.36,1.3Z" fill="none" stroke="#787878" stroke-linecap="round" stroke-linejoin="round"/><path d="M272.29,50.76a1.36,1.36,0,1,1-1.42-1.29h.06A1.34,1.34,0,0,1,272.29,50.76Z" fill="none" stroke="#787878" stroke-linecap="round" stroke-linejoin="round"/><path d="M275.58,44.72a1.36,1.36,0,1,1-1.42-1.29h.06a1.34,1.34,0,0,1,1.36,1.3Z" fill="none" stroke="#787878" stroke-linecap="round" stroke-linejoin="round"/><path d="M272.44,60.27A1.37,1.37,0,1,1,271,59h.07a1.34,1.34,0,0,1,1.37,1.29Z" fill="none" stroke="#787878" stroke-linecap="round" stroke-linejoin="round"/><path d="M261.28,43.54a1.36,1.36,0,1,1-1.42-1.29h.06a1.34,1.34,0,0,1,1.36,1.3Z" fill="none" stroke="#787878" stroke-linecap="round" stroke-linejoin="round"/></g></svg>