<svg xmlns="http://www.w3.org/2000/svg" xmlns:xlink="http://www.w3.org/1999/xlink" width="269.577" height="269.318" viewBox="0 0 269.577 269.318" id="corona-svg"><defs><style>.a,.b,.c,.d,.e,.f,.g,.h,.i,.j,.k,.l,.m,.n,.o,.p{stroke:#fff;}.a,.b,.c,.e,.g,.h,.i,.k,.l,.m,.n,.o{stroke-miterlimit:10;}.a{fill:url(#a);}.b{fill:url(#b);}.c{fill:url(#c);}.d{fill:url(#d);}.e{fill:url(#e);}.f{fill:url(#f);}.g{fill:url(#g);}.h{fill:url(#h);}.i{fill:url(#i);}.j{fill:url(#j);}.k{fill:url(#k);}.l{fill:url(#l);}.m{fill:url(#m);}.n{fill:url(#n);}.o{fill:url(#o);}.p{fill:url(#p);}</style><radialGradient id="a" cx="1.928" cy="-0.838" r="3.86" gradientTransform="matrix(-0.999, 0, 0, 1, 3.851, 0)" gradientUnits="objectBoundingBox"><stop offset="0" stop-color="#f9f9f9"/><stop offset="0.411" stop-color="#49bcbb"/><stop offset="1" stop-color="#31439a"/></radialGradient><radialGradient id="b" cx="22.609" cy="-6.487" r="21.527" gradientTransform="matrix(-5.172, 0, 0, 1, 231.802, 0)" xlink:href="#a"/><radialGradient id="c" cx="10.954" cy="-12.313" r="34.49" gradientTransform="matrix(-1, 0, 0, 1, 21.908, 0)" xlink:href="#a"/><radialGradient id="d" cx="9.137" cy="9.682" r="28.097" gradientTransform="matrix(0.009, -1, -1, -0.009, 1.615, 0.696)" xlink:href="#a"/><radialGradient id="e" cx="19.72" cy="-17.993" r="54.199" gradientTransform="matrix(-1, 0, 0, 1, 39.439, 0)" xlink:href="#a"/><radialGradient id="f" cx="-4.925" cy="12.547" r="28.097" gradientTransform="matrix(0.885, -0.465, -0.465, -0.885, 6.52, 18.591)" xlink:href="#a"/><radialGradient id="g" cx="13.891" cy="-14.553" r="48.809" gradientTransform="matrix(-1, 0, 0, 1, 27.782, 0)" xlink:href="#a"/><radialGradient id="h" cx="17.754" cy="-18.483" r="48.809" gradientTransform="matrix(-1, 0, 0, 1, 35.507, 0)" xlink:href="#a"/><radialGradient id="i" cx="6.364" cy="-10.659" r="25.93" gradientTransform="matrix(-1.016, 0, 0, 1, 12.925, 0)" xlink:href="#a"/><radialGradient id="j" cx="-14.444" cy="9.214" r="18.825" gradientTransform="matrix(3.704, -0.701, -3.641, -0.713, 145.479, 18.449)" xlink:href="#a"/><radialGradient id="k" cx="11.694" cy="-10.886" r="26.348" gradientTransform="matrix(-0.984, 0, 0, 1, 23.026, 0)" xlink:href="#a"/><radialGradient id="l" cx="6.292" cy="-5.356" r="26.565" gradientTransform="matrix(-0.969, 0, 0, 1, 12.205, 0)" xlink:href="#a"/><radialGradient id="m" cx="7.537" cy="-50.43" r="111.682" gradientTransform="matrix(-0.193, 0, 0, 1, 3.309, 0)" xlink:href="#a"/><radialGradient id="n" cx="7.585" cy="-21.538" r="111.682" gradientTransform="matrix(-0.193, 0, 0, 1, 3.327, 0)" xlink:href="#a"/><radialGradient id="o" cx="51.411" cy="-6.583" r="21.527" gradientTransform="matrix(-5.172, 0, 0, 1, 529.753, 0)" xlink:href="#a"/><radialGradient id="p" cx="1.989" cy="23.362" r="56.194" gradientTransform="matrix(0.623, -0.782, -0.782, -0.623, 17.9, 22.241)" xlink:href="#a"/></defs><g transform="translate(39.161 -5.878) rotate(13)"><g transform="translate(0)"><g transform="translate(12.896 3.689)"><path class="a" d="M1922.677,469.736a81.461,81.461,0,0,1,21.032,48.342c9.558-1.22,21.377-4.985,29.5-15.358l.69,40.066s-8.152-10.308-30.024-13.621a81.481,81.481,0,0,1-19.6,48.931c7.4,7.94,23.638,21.911,44.638,19.544L1936.8,630.317s2.452-19.393-20.249-44.348a81.479,81.479,0,0,1-48.755,20.5c1.158,9.542,4.838,21.311,15.085,29.482l-40.07.345s10.352-8.041,13.865-29.822A81.46,81.46,0,0,1,1808.62,586.7c-7.887,7.276-22.21,23.642-19.815,44.887l-32.676-32.117s19.555,2.464,44.659-20.54a81.461,81.461,0,0,1-20.186-47.7c-9.609,1.179-21.59,4.915-29.8,15.4l-.69-40.065s8.238,10.414,30.367,13.671a81.473,81.473,0,0,1,19.553-48.627c-7.125-7.813-23.647-22.558-45.177-20.131l32.117-32.676s-2.477,19.694,20.789,44.927a81.469,81.469,0,0,1,48.287-20.48c-1.076-9.643-4.694-21.735-15.156-30.077l40.07-.345s-10.513,8.169-13.946,30.337a81.467,81.467,0,0,1,47.684,18.947c7.816-7.327,22.047-23.833,19.465-45.091l32.951,31.836S1947.564,446.558,1922.677,469.736Z" transform="translate(-1750.113 -412.824)"/><path class="b" d="M1748.679,539.241c-2.13.037-3.7,9.035-3.512,20.1s2.072,20,4.2,19.967,3.7-9.035,3.512-20.1S1750.81,539.2,1748.679,539.241Z" transform="translate(-1525.581 -449.344)"/></g><path class="c" d="M1881.089,610.321a12.5,12.5,0,1,0,.152,17.681A12.5,12.5,0,0,0,1881.089,610.321Z" transform="translate(-1726.158 -465.154)"/><path class="d" d="M15.283,30.566A15.348,15.348,0,1,0-.065,15.217,15.348,15.348,0,0,0,15.283,30.566Z" transform="translate(112.958 116.62) rotate(-90.493)"/><path class="e" d="M1942.211,578.669a7.957,7.957,0,1,0,.1,11.253A7.957,7.957,0,0,0,1942.211,578.669Z" transform="translate(-1834.884 -456.387)"/><path class="f" d="M11.8,28.379A15.348,15.348,0,1,0-3.552,13.031,15.348,15.348,0,0,0,11.8,28.379Z" transform="matrix(-0.885, -0.465, 0.465, -0.885, 92.478, 100.491)"/><circle class="g" cx="8.835" cy="8.835" r="8.835" transform="translate(162.136 90.833)"/><circle class="h" cx="8.835" cy="8.835" r="8.835" transform="translate(93.878 160.277)"/><path class="i" d="M1789.111,672.6c-1.737-1.708-10.335,4.223-19.2,13.246s-14.65,17.722-12.913,19.43,10.336-4.223,19.205-13.246S1790.848,674.311,1789.111,672.6Z" transform="translate(-1557.408 -484.098)"/><path class="j" d="M1.308,45.432c2.436,0,4.411-10.257,4.411-22.909S3.744-.386,1.308-.386-3.1,9.871-3.1,22.523-1.129,45.432,1.308,45.432Z" transform="translate(18.842 42.982) rotate(-135.493)"/><path class="k" d="M2042.961,707.291c1.708-1.737-4.223-10.335-13.246-19.2s-17.722-14.651-19.43-12.913,4.222,10.335,13.246,19.2S2041.254,709.028,2042.961,707.291Z" transform="translate(-1991.374 -484.836)"/><path class="l" d="M1759.538,418.592c-1.693,1.752,4.311,10.3,13.41,19.09s17.847,14.5,19.541,12.746-4.312-10.3-13.411-19.09S1761.231,416.84,1759.538,418.592Z" transform="translate(-1562.59 -410.71)"/><path class="m" d="M1918.177,725.092c-.018-2.13-9-3.78-20.068-3.685s-20.021,1.9-20,4.03,9,3.78,20.068,3.685S1918.2,727.223,1918.177,725.092Z" transform="translate(-1772.511 -498.28)"/><path class="n" d="M1880.808,411.67c.019,2.13,9,3.78,20.068,3.685s20.021-1.9,20-4.03-9-3.78-20.068-3.685S1880.79,409.54,1880.808,411.67Z" transform="translate(-1777.133 -407.636)"/><path class="o" d="M2063.1,584.708c2.131-.036,3.7-9.035,3.513-20.1s-2.072-20-4.2-19.967-3.7,9.035-3.512,20.1S2060.971,584.745,2063.1,584.708Z" transform="translate(-2049.516 -447.216)"/></g><path class="p" d="M6.22,13.626A7.674,7.674,0,1,0-1.454,5.952,7.674,7.674,0,0,0,6.22,13.626Z" transform="matrix(-0.623, -0.782, 0.782, -0.623, 146.6, 78.757)"/></g></svg>