<svg xmlns="http://www.w3.org/2000/svg" xmlns:xlink="http://www.w3.org/1999/xlink" width="86.433" height="86.431" viewBox="0 0 86.433 86.431"><defs><style>.a{opacity:0.64;}.b,.c,.d,.e,.f,.g,.h,.i,.j,.k,.l,.m,.n,.o,.p,.q{stroke:#fff;}.b,.c,.d,.e,.f,.g,.h,.i,.j,.k,.m,.n,.o,.p{stroke-miterlimit:10;}.b{fill:url(#a);}.c{fill:url(#b);}.d{fill:url(#c);}.e{fill:url(#d);}.f{fill:url(#e);}.g{fill:url(#f);}.h{fill:url(#g);}.i{fill:url(#h);}.j{fill:url(#i);}.k{fill:url(#j);}.l{fill:url(#k);}.m{fill:url(#l);}.n{fill:url(#m);}.o{fill:url(#n);}.p{fill:url(#o);}.q{fill:url(#p);}</style><radialGradient id="a" cx="1.928" cy="-0.838" r="3.86" gradientTransform="matrix(-0.999, 0, 0, 1, 3.851, 0)" gradientUnits="objectBoundingBox"><stop offset="0" stop-color="#f9f9f9"/><stop offset="0.411" stop-color="#49bcbb"/><stop offset="1" stop-color="#31439a"/></radialGradient><radialGradient id="b" cx="22.61" cy="-6.487" r="21.527" gradientTransform="matrix(-5.173, 0, 0, 1, 231.819, 0)" xlink:href="#a"/><radialGradient id="c" cx="10.954" cy="-12.313" r="34.491" gradientTransform="matrix(-1, 0, 0, 1, 21.908, 0)" xlink:href="#a"/><radialGradient id="d" cx="9.607" cy="-8.215" r="28.097" gradientTransform="matrix(-1, 0, 0, 1, 19.214, 0)" xlink:href="#a"/><radialGradient id="e" cx="19.719" cy="-17.992" r="54.196" gradientTransform="matrix(-1, 0, 0, 1, 39.438, 0)" xlink:href="#a"/><radialGradient id="f" cx="10.908" cy="-7.637" r="28.097" gradientTransform="matrix(-1, 0, 0, 1, 21.817, 0)" xlink:href="#a"/><radialGradient id="g" cx="13.89" cy="-14.552" r="48.806" gradientTransform="matrix(-1, 0, 0, 1, 27.78, 0)" xlink:href="#a"/><radialGradient id="h" cx="17.755" cy="-18.484" r="48.811" gradientTransform="matrix(-1, 0, 0, 1, 35.509, 0)" xlink:href="#a"/><radialGradient id="i" cx="6.364" cy="-10.659" r="25.931" gradientTransform="matrix(-1.016, 0, 0, 1, 12.924, 0)" xlink:href="#a"/><radialGradient id="j" cx="11.922" cy="-5.282" r="25.93" gradientTransform="matrix(-1.016, 0, 0, 1, 24.221, 0)" xlink:href="#a"/><radialGradient id="k" cx="0.407" cy="60.218" r="97.766" gradientTransform="matrix(0.137, -0.701, -0.135, -0.713, 48.058, 69.937)" xlink:href="#a"/><radialGradient id="l" cx="6.292" cy="-5.356" r="26.565" gradientTransform="matrix(-0.969, 0, 0, 1, 12.204, 0)" xlink:href="#a"/><radialGradient id="m" cx="7.537" cy="-50.428" r="111.68" gradientTransform="matrix(-0.193, 0, 0, 1, 3.309, 0)" xlink:href="#a"/><radialGradient id="n" cx="7.585" cy="-21.537" r="111.681" gradientTransform="matrix(-0.193, 0, 0, 1, 3.327, 0)" xlink:href="#a"/><radialGradient id="o" cx="51.412" cy="-6.583" r="21.527" gradientTransform="matrix(-5.173, 0, 0, 1, 529.789, 0)" xlink:href="#a"/><radialGradient id="p" cx="15.763" cy="17.586" r="56.195" gradientTransform="matrix(0.009, -1, -1, -0.009, 2.949, -0.378)" xlink:href="#a"/></defs><g class="a" transform="translate(-2.393 0.501)"><g transform="translate(0)"><g transform="translate(4.2 1.365)"><path class="b" d="M2428.593,1015.69a30.15,30.15,0,0,1,7.784,17.89c3.537-.452,7.91-1.845,10.917-5.684l.255,14.827s-3.017-3.814-11.111-5.04a30.154,30.154,0,0,1-7.251,18.108c2.737,2.938,8.747,8.109,16.519,7.233l-11.886,12.092s.907-7.177-7.494-16.412a30.151,30.151,0,0,1-18.042,7.585c.428,3.531,1.79,7.886,5.582,10.911l-14.828.127s3.83-2.976,5.131-11.036a30.156,30.156,0,0,1-17.785-7.315c-2.919,2.692-8.219,8.749-7.333,16.611l-12.092-11.885s7.236.912,16.526-7.6a30.146,30.146,0,0,1-7.47-17.653c-3.556.436-7.989,1.819-11.028,5.7l-.255-14.827s3.048,3.854,11.237,5.06a30.154,30.154,0,0,1,7.236-18c-2.637-2.891-8.751-8.348-16.719-7.45l11.886-12.092s-.916,7.288,7.693,16.626a30.15,30.15,0,0,1,17.869-7.579c-.4-3.568-1.737-8.044-5.608-11.131l14.829-.127s-3.892,3.023-5.161,11.227a30.144,30.144,0,0,1,17.646,7.012c2.893-2.711,8.159-8.82,7.2-16.687l12.194,11.781S2437.8,1007.112,2428.593,1015.69Z" transform="translate(-2364.733 -994.628)"/><path class="c" d="M2364.2,1041.411c-.789.014-1.371,3.344-1.3,7.438s.767,7.4,1.555,7.389,1.37-3.344,1.3-7.438S2364.991,1041.4,2364.2,1041.411Z" transform="translate(-2281.641 -1008.143)"/></g><path class="d" d="M2413.2,1067.716a4.627,4.627,0,1,0,.057,6.544A4.627,4.627,0,0,0,2413.2,1067.716Z" transform="translate(-2356.44 -1013.993)"/><path class="e" d="M2422.944,1039.019a5.68,5.68,0,1,0,.07,8.032A5.679,5.679,0,0,0,2422.944,1039.019Z" transform="translate(-2372.15 -1005.616)"/><path class="f" d="M2435.823,1056a2.945,2.945,0,1,0,.035,4.164A2.945,2.945,0,0,0,2435.823,1056Z" transform="translate(-2396.676 -1010.749)"/><path class="g" d="M2443.731,1029.787a5.68,5.68,0,1,0,.069,8.033A5.68,5.68,0,0,0,2443.731,1029.787Z" transform="translate(-2407.719 -1002.949)"/><path class="h" d="M2399.894,1040.916a3.27,3.27,0,1,0,.04,4.624A3.271,3.271,0,0,0,2399.894,1040.916Z" transform="translate(-2334.902 -1006.364)"/><path class="i" d="M2435.417,1077.056a3.27,3.27,0,1,0,.04,4.624A3.269,3.269,0,0,0,2435.417,1077.056Z" transform="translate(-2395.686 -1016.804)"/><path class="j" d="M2379.165,1090.765c-.643-.632-3.825,1.562-7.107,4.9s-5.422,6.559-4.779,7.19,3.825-1.562,7.108-4.9S2379.808,1091.4,2379.165,1090.765Z" transform="translate(-2293.99 -1021.004)"/><path class="k" d="M2461.967,1009.786c.643.631,3.825-1.563,7.106-4.9s5.422-6.558,4.779-7.19-3.825,1.562-7.107,4.9S2461.323,1009.154,2461.967,1009.786Z" transform="translate(-2456.011 -994.117)"/><path class="l" d="M8.332,2.121c4.682,0,8.478-.731,8.478-1.632s-3.8-1.632-8.478-1.632S-.146-.413-.146.489,3.65,2.121,8.332,2.121Z" transform="translate(18.072 82.57) rotate(-135.493)"/><path class="m" d="M2368.221,996.762c-.626.649,1.6,3.812,4.963,7.065s6.6,5.365,7.231,4.716-1.6-3.811-4.962-7.064S2368.847,996.114,2368.221,996.762Z" transform="translate(-2295.908 -993.845)"/><path class="n" d="M2426.929,1110.189c-.006-.789-3.332-1.4-7.427-1.364s-7.408.7-7.4,1.491,3.332,1.4,7.427,1.364S2426.936,1110.978,2426.929,1110.189Z" transform="translate(-2373.594 -1026.253)"/><path class="o" d="M2413.1,994.2c.006.789,3.332,1.4,7.426,1.364s7.409-.7,7.4-1.491-3.332-1.4-7.427-1.364S2413.092,993.413,2413.1,994.2Z" transform="translate(-2375.304 -992.708)"/><path class="p" d="M2480.561,1058.237c.788-.014,1.37-3.344,1.3-7.438s-.767-7.4-1.555-7.389-1.371,3.344-1.3,7.438S2479.772,1058.251,2480.561,1058.237Z" transform="translate(-2476.106 -1007.355)"/></g><path class="q" d="M2.828,5.656a2.84,2.84,0,1,0-2.84-2.84A2.84,2.84,0,0,0,2.828,5.656Z" transform="translate(51.178 28.825) rotate(-90.493)"/></g></svg>